<?xml version="1.0" encoding="UTF-8"?>
<svg width="36px" height="20px" viewBox="0 0 36 20" version="1.1" xmlns="http://www.w3.org/2000/svg" xmlns:xlink="http://www.w3.org/1999/xlink">
    <!-- Generator: Sketch 44.1 (41455) - http://www.bohemiancoding.com/sketch -->
    <title>group</title>
    <desc>Created with Sketch.</desc>
    <defs></defs>
    <g id="2017-06-19" stroke="none" stroke-width="1" fill="none" fill-rule="evenodd">
        <g id="NowHere-LP-Desktop-v2" transform="translate(-640.000000, -598.000000)" fill-rule="nonzero" fill="#FFFFFF">
            <g id="main-content" transform="translate(630.000000, 203.000000)">
                <path d="M31,399.5 C31,397.566959 29.4330411,396 27.5,396 C25.5669589,396 24,397.566959 24,399.5 C24,401.433041 25.5669589,403 27.5,403 C29.4330411,403 31,401.433041 31,399.5 Z M32,399.5 C32,401.985326 29.9853259,404 27.5,404 C25.0146741,404 23,401.985326 23,399.5 C23,397.014674 25.0146741,395 27.5,395 C29.9853259,395 32,397.014674 32,399.5 Z M34,414.278406 C34,414.554549 33.7761424,414.778406 33.5,414.778406 C33.2238576,414.778406 33,414.554549 33,414.278406 L33,410.699937 C33,407.630611 30.5224238,405.12 27.5000626,405.12 C24.4776744,405.12 22,407.630638 22,410.699937 L22,414.278406 C22,414.554549 21.7761424,414.778406 21.5,414.778406 C21.2238576,414.778406 21,414.554549 21,414.278406 L21,410.699937 C21,407.08129 23.9224096,404.12 27.5000626,404.12 C31.0776951,404.12 34,407.081269 34,410.699937 L34,414.278406 Z M20,399.5 C20,397.566959 18.4330411,396 16.5,396 C14.5669589,396 13,397.566959 13,399.5 C13,401.433041 14.5669589,403 16.5,403 C18.4330411,403 20,401.433041 20,399.5 Z M21,399.5 C21,401.985326 18.9853259,404 16.5,404 C14.0146741,404 12,401.985326 12,399.5 C12,397.014674 14.0146741,395 16.5,395 C18.9853259,395 21,397.014674 21,399.5 Z M21.1206401,406.082514 C21.3134481,406.2802 21.3094937,406.596757 21.1118078,406.789565 C20.9141219,406.982373 20.5975641,406.978419 20.4047562,406.780733 C19.3752056,405.725135 17.9812897,405.12 16.5000626,405.12 C13.4776744,405.12 11,407.630638 11,410.699937 L11,414.278406 C11,414.554549 10.7761424,414.778406 10.5,414.778406 C10.2238576,414.778406 10,414.554549 10,414.278406 L10,410.699937 C10,407.08129 12.9224096,404.12 16.5000626,404.12 C18.2547655,404.12 19.9054929,404.836624 21.1206401,406.082514 Z M42,399.5 C42,397.566959 40.4330411,396 38.5,396 C36.5669589,396 35,397.566959 35,399.5 C35,401.433041 36.5669589,403 38.5,403 C40.4330411,403 42,401.433041 42,399.5 Z M43,399.5 C43,401.985326 40.9853259,404 38.5,404 C36.0146741,404 34,401.985326 34,399.5 C34,397.014674 36.0146741,395 38.5,395 C40.9853259,395 43,397.014674 43,399.5 Z M33.902068,406.082514 C35.1172153,404.836624 36.7679427,404.12 38.5226456,404.12 C42.1002986,404.12 45.0227082,407.08129 45.0227082,410.699937 L45.0227082,414.278406 C45.0227082,414.554549 44.7988506,414.778406 44.5227082,414.778406 C44.2465658,414.778406 44.0227082,414.554549 44.0227082,414.278406 L44.0227082,410.699937 C44.0227082,407.630638 41.5450338,405.12 38.5226456,405.12 C37.0414184,405.12 35.6475026,405.725135 34.617952,406.780733 C34.4251441,406.978419 34.1085863,406.982373 33.9109004,406.789565 C33.7132145,406.596757 33.7092601,406.2802 33.902068,406.082514 Z" id="group"></path>
            </g>
        </g>
    </g>
</svg>