<?xml version="1.0" encoding="UTF-8"?>
<svg width="21px" height="27px" viewBox="0 0 21 27" version="1.1" xmlns="http://www.w3.org/2000/svg" xmlns:xlink="http://www.w3.org/1999/xlink">
    <!-- Generator: Sketch 44.1 (41455) - http://www.bohemiancoding.com/sketch -->
    <title>lock</title>
    <desc>Created with Sketch.</desc>
    <defs></defs>
    <g id="2017-06-19" stroke="none" stroke-width="1" fill="none" fill-rule="evenodd">
        <g id="NowHere-LP-Desktop-v2" transform="translate(-648.000000, -544.000000)" fill-rule="nonzero" fill="#FFFFFF">
            <g id="main-content" transform="translate(630.000000, 203.000000)">
                <path d="M19,353 L19,367 L38,367 L38,353 L19,353 Z M19,352 L38,352 C38.5522847,352 39,352.447715 39,353 L39,367 C39,367.552285 38.5522847,368 38,368 L19,368 C18.4477153,368 18,367.552285 18,367 L18,353 C18,352.447715 18.4477153,352 19,352 Z M29,359.914647 L29,363 L28,363 L28,359.914647 C27.4174038,359.708729 27,359.153109 27,358.5 C27,357.671573 27.6715729,357 28.5,357 C29.3284271,357 30,357.671573 30,358.5 C30,359.153109 29.5825962,359.708729 29,359.914647 Z M35,347.5 L35,353 L22,353 L22,347.5 C22,343.910149 24.9101491,341 28.5,341 C32.0898509,341 35,343.910149 35,347.5 Z M34,347.5 C34,344.462434 31.5375661,342 28.5,342 C25.4624339,342 23,344.462434 23,347.5 C23,347.72321 23,347.889226 23,347.998047 L34,348 C34,347.822504 34,347.655837 34,347.5 Z M23,352 L34,352 L34,348 L23,348 L23,352 Z" id="lock"></path>
            </g>
        </g>
    </g>
</svg>