<?xml version="1.0" encoding="UTF-8"?>
<svg width="27px" height="23px" viewBox="0 0 27 23" version="1.1" xmlns="http://www.w3.org/2000/svg" xmlns:xlink="http://www.w3.org/1999/xlink">
    <!-- Generator: Sketch 44.1 (41455) - http://www.bohemiancoding.com/sketch -->
    <title>messaging</title>
    <desc>Created with Sketch.</desc>
    <defs></defs>
    <g id="2017-06-19" stroke="none" stroke-width="1" fill="none" fill-rule="evenodd">
        <g id="NowHere-LP-Desktop-v2" transform="translate(-645.000000, -421.000000)" fill-rule="nonzero" fill="#FFFFFF">
            <g id="main-content" transform="translate(630.000000, 203.000000)">
                <path d="M23,231.207107 L18.8535534,235.353553 C18.538571,235.668536 18,235.445452 18,235 L18,231 L15.5,231 C15.2238576,231 15,230.776142 15,230.5 L15,218.5 C15,218.223858 15.2238576,218 15.5,218 L36.5,218 C36.7761424,218 37,218.223858 37,218.5 L37,225 L41.5,225 C41.7761424,225 42,225.223858 42,225.5 L42,235.5 C42,235.776142 41.7761424,236 41.5,236 L39,236 L39,240 C39,240.445452 38.461429,240.668536 38.1464466,240.353553 L33.7928932,236 L23.5,236 C23.2238576,236 23,235.776142 23,235.5 L23,231.207107 Z M24,231 L24,235 L34,235 C34.1326082,235 34.2597852,235.052678 34.3535534,235.146447 L38,238.792893 L38,235.5 C38,235.223858 38.2238576,235 38.5,235 L41,235 L41,226 L37,226 L37,230.5 C37,230.776142 36.7761424,231 36.5,231 L24,231 Z M22.6464466,230.146447 C22.7402148,230.052678 22.8673918,230 23,230 L36,230 L36,219 L16,219 L16,230 L18.5,230 C18.7761424,230 19,230.223858 19,230.5 L19,233.792893 L22.6464466,230.146447 Z M21,225.5 C20.4477153,225.5 20,225.052285 20,224.5 C20,223.947715 20.4477153,223.5 21,223.5 C21.5522847,223.5 22,223.947715 22,224.5 C22,225.052285 21.5522847,225.5 21,225.5 Z M26,225.5 C25.4477153,225.5 25,225.052285 25,224.5 C25,223.947715 25.4477153,223.5 26,223.5 C26.5522847,223.5 27,223.947715 27,224.5 C27,225.052285 26.5522847,225.5 26,225.5 Z M31,225.5 C30.4477153,225.5 30,225.052285 30,224.5 C30,223.947715 30.4477153,223.5 31,223.5 C31.5522847,223.5 32,223.947715 32,224.5 C32,225.052285 31.5522847,225.5 31,225.5 Z" id="messaging"></path>
            </g>
        </g>
    </g>
</svg>