<?xml version="1.0" encoding="UTF-8"?>
<svg width="294px" height="55px" viewBox="0 0 294 55" version="1.1" xmlns="http://www.w3.org/2000/svg" xmlns:xlink="http://www.w3.org/1999/xlink">
    <!-- Generator: Sketch 44.1 (41455) - http://www.bohemiancoding.com/sketch -->
    <title>NowHere-Logo</title>
    <desc>Created with Sketch.</desc>
    <defs></defs>
    <g id="2017-06-19" stroke="none" stroke-width="1" fill="none" fill-rule="evenodd">
        <g id="NowHere-LP-Desktop-v2" transform="translate(-60.000000, -20.000000)" fill="#FFFFFF">
            <g id="NowHere-Logo" transform="translate(60.000000, 20.000000)">
                <path d="M94.7327146,20.7222348 L100.205802,20.7222348 L100.205802,47.3224113 L95.886903,47.3224113 L82.6695842,30.3610628 L82.6695842,47.3224113 L77.2337291,47.3224113 L77.2337291,20.7222348 L81.5153958,20.7222348 L94.7327146,37.6462235 L94.7327146,20.7222348 Z M114.972381,45.9961384 C113.023902,44.8877922 111.522231,43.3000166 110.467323,41.2327641 C109.412414,39.1655116 108.884968,36.7496021 108.884968,33.9849632 C108.884968,31.2203243 109.412414,28.816868 110.467323,26.7745222 C111.522231,24.7321763 113.023902,23.1568539 114.972381,22.0485077 C116.920859,20.9401614 119.210597,20.3859966 121.841663,20.3859966 C124.47273,20.3859966 126.756262,20.9401614 128.69233,22.0485077 C130.628398,23.1568539 132.117658,24.7321763 133.160156,26.7745222 C134.202654,28.816868 134.723895,31.2203243 134.723895,33.9849632 C134.723895,36.7496021 134.202654,39.1655116 133.160156,41.2327641 C132.117658,43.3000166 130.628398,44.8877922 128.69233,45.9961384 C126.756262,47.1044846 124.47273,47.6586494 121.841663,47.6586494 C119.210597,47.6586494 116.920859,47.1044846 114.972381,45.9961384 Z M127.072743,40.7470867 C128.326223,39.1779674 128.952953,36.9239487 128.952953,33.9849632 C128.952953,31.0459777 128.326223,28.8044123 127.072743,27.2601995 C125.819263,25.7159868 124.075587,24.943892 121.841663,24.943892 C119.607739,24.943892 117.864063,25.7159868 116.610584,27.2601995 C115.357104,28.8044123 114.730373,31.0459777 114.730373,33.9849632 C114.730373,36.9488554 115.357104,39.2091006 116.610584,40.7657666 C117.864063,42.3224327 119.607739,43.100754 121.841663,43.100754 C124.075587,43.100754 125.819263,42.3162061 127.072743,40.7470867 Z M175.683105,20.7222348 L181.230655,20.7222348 L171.810989,47.3224113 L167.157003,47.3224113 L160.97651,29.7259462 L154.758786,47.3224113 L150.1048,47.3224113 L140.685134,20.7222348 L146.605003,20.7222348 L152.711032,39.1032556 L159.114916,20.7222348 L163.173192,20.7222348 L169.428148,39.3647742 L175.683105,20.7222348 Z M192.455988,47.3224113 L190.074456,47.3224113 L190.074456,20.7619296 L192.528706,20.7619296 L192.528706,32.6192875 L208.308626,32.6192875 L208.308626,20.7619296 L210.671978,20.7619296 L210.671978,47.3224113 L208.235907,47.3224113 L208.235907,34.6806436 L192.455988,34.6806436 L192.455988,47.3224113 Z M238.406015,45.2428131 L238.406015,47.3224113 L222.589736,47.3224113 L222.589736,20.7619296 L237.896985,20.7619296 L237.896985,22.8415278 L224.989448,22.8415278 L224.989448,32.6557717 L237.1698,32.6557717 L237.1698,34.7171277 L224.953088,34.7171277 L224.953088,45.2428131 L238.406015,45.2428131 Z M265.467406,47.3224113 L262.704102,39.7337022 C262.376867,38.8459161 262.049637,38.1071189 261.722402,37.5172884 C261.395167,36.9274579 261.007339,36.4562086 260.558906,36.1035265 C260.110472,35.7508443 259.577209,35.5015383 258.959098,35.3556008 C258.340987,35.2096634 257.577451,35.1366958 256.668465,35.1366958 L251.250935,35.1366958 L251.250935,47.3224113 L248.887582,47.3224113 L248.887582,20.7619296 L255.105016,20.7619296 C255.820085,20.7619296 256.598772,20.7740909 257.441099,20.7984138 C258.283426,20.8227367 259.12877,20.901785 259.977157,21.0355609 C260.825544,21.1693369 261.64362,21.3730382 262.431408,21.6466709 C263.219195,21.9203036 263.919104,22.3094643 264.531155,22.8141646 C265.143206,23.3188649 265.634051,23.9573317 266.003705,24.729584 C266.373359,25.5018363 266.558184,26.4473751 266.558184,27.5662288 C266.558184,28.4540149 266.406688,29.2657798 266.103693,30.0015477 C265.800698,30.7373156 265.370451,31.381863 264.812939,31.9352091 C264.255428,32.4885553 263.588848,32.9506836 262.81318,33.3216079 C262.037512,33.6925322 261.177018,33.9570399 260.231672,34.1151388 C260.207433,34.1881075 260.195313,34.2367526 260.195313,34.2610755 C260.195313,34.273237 260.198343,34.2823579 260.204403,34.2884386 C260.210463,34.2945194 260.213493,34.3036403 260.213493,34.3158018 C261.086119,34.4860621 261.792088,34.7809729 262.33142,35.2005431 C262.870751,35.6201132 263.352507,36.1947333 263.7767,36.9244205 C264.200894,37.6541077 264.615991,38.5601224 265.022005,39.6424918 C265.428019,40.7248611 265.934013,42.0139559 266.540004,43.5098146 L267.994375,47.3224113 L265.467406,47.3224113 Z M251.323653,33.0388555 L256.650285,33.0388555 C257.535031,33.0388555 258.416735,32.9628476 259.295421,32.8108294 C260.174108,32.6588113 260.964914,32.388223 261.667863,31.9990565 C262.370812,31.6098899 262.943465,31.083915 263.385838,30.4211158 C263.828211,29.7583165 264.049395,28.9161485 264.049395,27.8945864 C264.049395,26.8730243 263.8676,26.0369369 263.504006,25.3862992 C263.140411,24.7356614 262.634417,24.2218477 261.986007,23.8448427 C261.337596,23.4678376 260.57103,23.2063703 259.686283,23.0604328 C258.801537,22.9144954 257.838026,22.8415278 256.795722,22.8415278 L251.323653,22.8415278 L251.323653,33.0388555 Z M293.85591,45.2428131 L293.85591,47.3224113 L278.039631,47.3224113 L278.039631,20.7619296 L293.34688,20.7619296 L293.34688,22.8415278 L280.439342,22.8415278 L280.439342,32.6557717 L292.619695,32.6557717 L292.619695,34.7171277 L280.402983,34.7171277 L280.402983,45.2428131 L293.85591,45.2428131 Z" id="NOWHERE"></path>
                <g id="Logo" transform="translate(0.000000, 0.000000)">
                    <path d="M18.2022544,45.6102255 L27.3033816,54.7426207 L36.4045089,45.6102255 L36.4045089,27.3971855 C36.4045089,22.3615828 32.3217432,18.2647903 27.3033816,18.2647903 C22.2850201,18.2647903 18.2022544,22.3615828 18.2022544,27.3971855 L18.2022544,45.6102255 Z M22.752818,27.3971855 C22.752818,24.8793841 24.7942009,22.8309879 27.3033816,22.8309879 L27.3033816,22.8309879 C29.8125624,22.8309879 31.8539452,24.8793841 31.8539452,27.3971855 L31.8539452,27.3971855 C31.8539452,29.9149868 29.8125624,31.963383 27.3033816,31.963383 L27.3033816,31.963383 C24.7942009,31.963383 22.752818,29.9149868 22.752818,27.3971855 L22.752818,27.3971855 Z"></path>
                    <path d="M27.3033816,0 C12.2668026,0 0.0288202362,12.2617626 0,27.3439132 L0,27.3439132 L4.55056361,31.9101107 L4.55056361,27.3971855 C4.55056361,14.8081787 14.7574778,4.56619758 27.3033816,4.56619758 L27.3033816,4.56619758 C39.8492855,4.56619758 50.0561997,14.8081787 50.0561997,27.3971855 L50.0561997,27.3971855 L50.0561997,31.9070666 L54.6067633,27.3407168 C54.5764262,12.2600883 42.3399607,0 27.3033816,0 Z" id="Path"></path>
                    <path d="M9.10112721,36.4763083 L13.6516908,41.0425059 L13.6516908,27.3971855 C13.6516908,19.8431726 19.7752326,13.6985927 27.3033816,13.6985927 C34.8315307,13.6985927 40.9550725,19.8431726 40.9550725,27.3971855 L40.9550725,41.0393096 L45.5056361,36.4732642 L45.5056361,27.3971855 C45.5056361,17.3255235 37.3404081,9.13239516 27.3033816,9.13239516 C17.2663552,9.13239516 9.10112721,17.3255235 9.10112721,27.3971855 L9.10112721,36.4763083 Z" id="Path"></path>
                </g>
            </g>
        </g>
    </g>
</svg>