<?xml version="1.0" encoding="UTF-8"?>
<svg width="15px" height="28px" viewBox="0 0 15 28" version="1.1" xmlns="http://www.w3.org/2000/svg" xmlns:xlink="http://www.w3.org/1999/xlink">
    <!-- Generator: Sketch 44.1 (41455) - http://www.bohemiancoding.com/sketch -->
    <title>pin</title>
    <desc>Created with Sketch.</desc>
    <defs></defs>
    <g id="2017-06-19" stroke="none" stroke-width="1" fill="none" fill-rule="evenodd">
        <g id="NowHere-LP-Desktop-v2" transform="translate(-651.000000, -469.000000)" fill-rule="nonzero" fill="#FFFFFF">
            <g id="main-content" transform="translate(630.000000, 203.000000)">
                <path d="M21,286.197885 L21,273.009221 C21,269.143894 24.1438943,266 28.0092214,266 C31.8745485,266 35.0184428,269.143894 35.0184428,273.009221 L35.0184428,286.197885 L28.0092214,293.207107 L21,286.197885 Z M28.0092214,291.792893 L34.0184428,285.783672 L34.0184428,273.009221 C34.0184428,269.696179 31.3222637,267 28.0092214,267 C24.6961791,267 22,269.696179 22,273.009221 L22,285.783672 L28.0092214,291.792893 Z M25.2546107,273.009221 C25.2546107,274.527671 26.4907714,275.763832 28.0092214,275.763832 C29.5276714,275.763832 30.7638321,274.527671 30.7638321,273.009221 C30.7638321,271.490771 29.5276714,270.254611 28.0092214,270.254611 C26.4907714,270.254611 25.2546107,271.490771 25.2546107,273.009221 Z M24.2546107,273.009221 C24.2546107,270.938487 25.9384867,269.254611 28.0092214,269.254611 C30.0799561,269.254611 31.7638321,270.938487 31.7638321,273.009221 C31.7638321,275.079956 30.0799561,276.763832 28.0092214,276.763832 C25.9384867,276.763832 24.2546107,275.079956 24.2546107,273.009221 Z" id="pin"></path>
            </g>
        </g>
    </g>
</svg>