<?xml version="1.0" encoding="UTF-8"?>
<svg width="22px" height="22px" viewBox="0 0 22 22" version="1.1" xmlns="http://www.w3.org/2000/svg" xmlns:xlink="http://www.w3.org/1999/xlink">
    <!-- Generator: Sketch 44.1 (41455) - http://www.bohemiancoding.com/sketch -->
    <title>schedule</title>
    <desc>Created with Sketch.</desc>
    <defs></defs>
    <g id="2017-06-19" stroke="none" stroke-width="1" fill="none" fill-rule="evenodd">
        <g id="NowHere-LP-Desktop-v2" transform="translate(-647.000000, -647.000000)" fill-rule="nonzero" fill="#FFFFFF">
            <g id="main-content" transform="translate(630.000000, 203.000000)">
                <path d="M37.9,450.05 L37.9,448.956814 C37.9,446.822449 36.1757192,445.1 34.0431857,445.1 L21.9568143,445.1 C19.8224493,445.1 18.1,446.824281 18.1,448.956814 L18.1,450.05 L37.9,450.05 Z M37.9,451.15 L18.1,451.15 L18.1,461.043186 C18.1,463.177551 19.8242808,464.9 21.9568143,464.9 L34.0431857,464.9 C36.1775507,464.9 37.9,463.175719 37.9,461.043186 L37.9,451.15 Z M17,448.956814 C17,446.217029 19.2146742,444 21.9568143,444 L34.0431857,444 C36.7829709,444 39,446.214674 39,448.956814 L39,461.043186 C39,463.782971 36.7853258,466 34.0431857,466 L21.9568143,466 C19.2170291,466 17,463.785326 17,461.043186 L17,448.956814 Z M21.4,455.447009 C21.4,454.896376 21.8452028,454.45 22.3970093,454.45 L22.6029907,454.45 C23.1536237,454.45 23.6,454.895203 23.6,455.447009 L23.6,455.652991 C23.6,456.203624 23.1547972,456.65 22.6029907,456.65 L22.3970093,456.65 C21.8463763,456.65 21.4,456.204797 21.4,455.652991 L21.4,455.447009 Z M26.9,455.447009 C26.9,454.896376 27.3452028,454.45 27.8970093,454.45 L28.1029907,454.45 C28.6536237,454.45 29.1,454.895203 29.1,455.447009 L29.1,455.652991 C29.1,456.203624 28.6547972,456.65 28.1029907,456.65 L27.8970093,456.65 C27.3463763,456.65 26.9,456.204797 26.9,455.652991 L26.9,455.447009 Z M21.4,459.847009 C21.4,459.296376 21.8452028,458.85 22.3970093,458.85 L22.6029907,458.85 C23.1536237,458.85 23.6,459.295203 23.6,459.847009 L23.6,460.052991 C23.6,460.603624 23.1547972,461.05 22.6029907,461.05 L22.3970093,461.05 C21.8463763,461.05 21.4,460.604797 21.4,460.052991 L21.4,459.847009 Z M26.9,459.847009 C26.9,459.296376 27.3452028,458.85 27.8970093,458.85 L28.1029907,458.85 C28.6536237,458.85 29.1,459.295203 29.1,459.847009 L29.1,460.052991 C29.1,460.603624 28.6547972,461.05 28.1029907,461.05 L27.8970093,461.05 C27.3463763,461.05 26.9,460.604797 26.9,460.052991 L26.9,459.847009 Z M32.4,455.447009 C32.4,454.896376 32.8452028,454.45 33.3970093,454.45 L33.6029907,454.45 C34.1536237,454.45 34.6,454.895203 34.6,455.447009 L34.6,455.652991 C34.6,456.203624 34.1547972,456.65 33.6029907,456.65 L33.3970093,456.65 C32.8463763,456.65 32.4,456.204797 32.4,455.652991 L32.4,455.447009 Z" id="schedule"></path>
            </g>
        </g>
    </g>
</svg>